<svg width="40" height="39" viewBox="0 0 40 39" fill="none" xmlns="http://www.w3.org/2000/svg">
<path d="M20.0002 2H14.1668C12.6197 2 11.136 2.61458 10.042 3.70854C8.94808 4.80251 8.3335 6.28624 8.3335 7.83333C8.3335 9.38043 8.94808 10.8642 10.042 11.9581C11.136 13.0521 12.6197 13.6667 14.1668 13.6667M20.0002 2V13.6667M20.0002 2H25.8335C26.5995 2 27.3581 2.15088 28.0658 2.44404C28.7735 2.73719 29.4166 3.16687 29.9583 3.70854C30.5 4.25022 30.9296 4.89328 31.2228 5.60101C31.5159 6.30875 31.6668 7.06729 31.6668 7.83333C31.6668 8.59938 31.5159 9.35792 31.2228 10.0657C30.9296 10.7734 30.5 11.4164 29.9583 11.9581C29.4166 12.4998 28.7735 12.9295 28.0658 13.2226C27.3581 13.5158 26.5995 13.6667 25.8335 13.6667M20.0002 13.6667H14.1668M20.0002 13.6667H25.8335M20.0002 13.6667V25.3333M14.1668 13.6667C12.6197 13.6667 11.136 14.2812 10.042 15.3752C8.94808 16.4692 8.3335 17.9529 8.3335 19.5C8.3335 21.0471 8.94808 22.5308 10.042 23.6248C11.136 24.7188 12.6197 25.3333 14.1668 25.3333M25.8335 13.6667C25.0675 13.6667 24.3089 13.8175 23.6012 14.1107C22.8934 14.4039 22.2504 14.8335 21.7087 15.3752C21.167 15.9169 20.7374 16.5599 20.4442 17.2677C20.151 17.9754 20.0002 18.734 20.0002 19.5C20.0002 20.266 20.151 21.0246 20.4442 21.7323C20.7374 22.4401 21.167 23.0831 21.7087 23.6248C22.2504 24.1665 22.8934 24.5961 23.6012 24.8893C24.3089 25.1824 25.0675 25.3333 25.8335 25.3333C26.5995 25.3333 27.3581 25.1824 28.0658 24.8893C28.7735 24.5961 29.4166 24.1665 29.9583 23.6248C30.5 23.0831 30.9296 22.4401 31.2228 21.7323C31.5159 21.0246 31.6668 20.266 31.6668 19.5C31.6668 18.734 31.5159 17.9754 31.2228 17.2677C30.9296 16.5599 30.5 15.9169 29.9583 15.3752C29.4166 14.8335 28.7735 14.4039 28.0658 14.1107C27.3581 13.8175 26.5995 13.6667 25.8335 13.6667ZM14.1668 25.3333C12.6197 25.3333 11.136 25.9479 10.042 27.0419C8.94808 28.1358 8.3335 29.6196 8.3335 31.1667C8.3335 32.7138 8.94808 34.1975 10.042 35.2915C11.136 36.3854 12.6197 37 14.1668 37C15.7139 37 17.1977 36.3854 18.2916 35.2915C19.3856 34.1975 20.0002 32.7138 20.0002 31.1667V25.3333M14.1668 25.3333H20.0002" stroke="#1E1E1E" stroke-width="3.5" stroke-linecap="round" stroke-linejoin="round"/>
</svg>
